<svg data-v-fde0c5aa="" xmlns="http://www.w3.org/2000/svg" viewBox="0 0 300 300" class="iconLeft"><!----><defs data-v-fde0c5aa=""><!----></defs><rect data-v-fde0c5aa="" fill="#F4F5F6" x="0" y="0" width="300px" height="300px" class="logo-background-square"></rect><defs data-v-fde0c5aa=""><!----></defs><g data-v-fde0c5aa="" id="2f551445-0d9c-4485-99a1-6b6bc8fb0a78" fill="#858482" transform="matrix(2.528012445205357,0,0,2.528012445205357,96.05839369690716,126.16084247295045)"><path d="M11.41 14.87L13.36 14.87L8.32 3.99L5.32 3.99L0.28 14.87L2.21 14.87L3.77 11.41L9.86 11.41ZM6.58 5.18L7.07 5.18L9.32 10.22L4.31 10.22ZM14.90 3.99L14.90 14.87L16.72 14.87L16.72 9.88L18.54 9.88C20.85 9.88 21.57 10.33 21.87 11.56C22.46 14.04 22.58 14.59 22.79 14.87L24.68 14.87C24.47 14.59 24.35 14.11 23.60 11.26C23.28 10.00 22.13 9.52 21.11 9.39C23.00 9.39 24.40 8.60 24.40 6.93C24.40 4.93 22.88 3.99 19.52 3.99ZM16.72 8.69L16.72 5.18L19.52 5.18C21.20 5.18 22.48 5.53 22.48 6.93C22.48 8.33 21.20 8.69 19.52 8.69ZM25.52 5.18L30.14 5.18L30.14 14.87L31.92 14.87L31.92 5.18L36.54 5.18L36.54 3.99L25.52 3.99ZM47.59 11.77C47.59 9.16 44.97 9.02 44.97 9.02C44.97 9.02 47.31 8.76 47.31 6.65C47.31 4.93 45.78 3.99 42.42 3.99L37.80 3.99L37.80 14.87L42.70 14.87C46.06 14.87 47.59 13.83 47.59 11.77ZM39.62 8.69L39.62 5.18L42.42 5.18C44.10 5.18 45.39 5.53 45.39 6.93C45.39 8.33 44.10 8.69 42.42 8.69ZM39.62 9.88L42.70 9.88C44.38 9.88 45.67 10.23 45.67 11.77C45.67 13.31 44.38 13.68 42.70 13.68L39.62 13.68ZM49.69 3.99L49.69 14.87L51.51 14.87L51.51 3.99ZM58.93 3.99L54.03 3.99L54.03 14.87L58.93 14.87C62.57 14.87 64.85 12.80 64.85 9.44C64.85 6.06 62.57 3.99 58.93 3.99ZM55.85 5.18L58.09 5.18C61.17 5.18 62.93 6.64 62.93 9.44C62.93 12.24 61.17 13.68 58.09 13.68L55.85 13.68Z"></path></g><defs data-v-fde0c5aa=""><!----></defs><g data-v-fde0c5aa="" id="124961d2-e488-44d1-93c1-8ebece0b9d44" stroke="none" fill="#C2C1BF" transform="matrix(0.4863038503950597,0,0,0.4863038503950597,36.593057698109845,126.14226727768695)"><path d="M60.3 73.2c-2.9-.7-5.9 1.1-6.7 4l-.1.3c-1.2 5.3-4.4 9.9-8.9 12.9.7.3 1.5.5 2.2.7 7.8 1.8 15.6-3 17.6-10.6l.1-.4c.8-3.2-1.1-6.2-4.2-6.9zM53.5 60.5c1.4-.2 2.9-.2 4.7 0l1.2.2.2-2.1v-.1s0-.3.2-1l.4-1.3-1.3-.2c-1.3-.2-2.5-.3-3.6-.3-2.4 0-4.6.4-6.7 1.3-6.1 2.6-7.8 9.3-9.3 15.1-.5 1.8-.9 3.6-1.5 5.1-1.6 4.3-5 6.7-9.3 6.7-1.1 0-2.3-.2-3.5-.5-5.2-1.4-8.8-6.1-11.1-9.6-4.3-8.7-1.1-18.5 2.6-27.8 3.8-9.7 8.3-19.6 17.4-25 6.9-4.1 16.5-4.4 28.2-.8 5.4 1.6 10.1 3.8 13.9 6.5l1 .7 2.4-4.1-.9-.6c-4.9-3.4-11-6.1-18.5-8-10.1-2.6-19.6-2.1-27.3 1.6-9.1 4.4-14.3 13.7-18.2 22.3C8.9 51 3.8 64.1 9.5 75.7c.1.2.1.3.2.4.1.1.2.3.3.4 3.7 5.6 10 12.3 18.4 12.3.6 0 1.2 0 1.8-.1C40 87.6 42.4 79 44.5 71.5l.4-1.4c1.6-5.9 4.3-8.8 8.6-9.6zM93.1 35.3c-1.2-1.9-2.7-3.7-4.5-5.5l-1.3-1.3-1.9 4.8.6.7c3.3 3.5 5.3 7.5 6.1 11.9.8 4.7-.8 9.6-4.4 13.2-2.1 2.1-4.8 3.1-8.4 3.1-1.2 0-2.6-.1-4-.4l-.9-.2-.4.9c-.3.7-.7 1.5-1 2.1l-.8 1.4 1.6.3c1.8.4 3.6.5 5.2.5 6 0 10.8-2.4 14.4-7.1 5.7-7.5 3.9-17.9-.3-24.4zM72.7 61.3l14.5-36.9 1.2-3.1 5.2-13.1c.1-.1 0-.3-.1-.4L92 6.7c-.2-.1-.4-.1-.5.2l-6.2 10.4-1.5 2.6-21.3 35.6c-.3.5-.8 1.5-1.1 2.4-.2.7-.4 1.3-.5 1.8l-.2 1-1.5 7.6v.1c-.1 1 .5 2.3 1.3 2.6l3.2 1.8c.8.4 1.9.2 2.6-.6v-.1l3.8-5.9c.2-.2.5-.8.9-1.5.5-.9 1-2 1.3-2.8.2-.1.3-.4.4-.6z"></path><circle cx="25.1" cy="67.9" r="5.9"></circle><circle cx="30.9" cy="48.3" r="5.9"></circle><circle cx="42.3" cy="31.4" r="5.9"></circle><circle cx="61.4" cy="31.4" r="5.9"></circle></g><!----></svg>