<svg data-v-423bf9ae="" xmlns="http://www.w3.org/2000/svg" viewBox="0 0 356.08455339511124 60" class="font"><!----><!----><!----><g data-v-423bf9ae="" id="c52897fd-9936-4f37-aa4b-1949f91821f8" fill="black" transform="matrix(5.5147058243466915,0,0,5.5147058243466915,-1.5441148232565922,-22.00367653015421)"><path d="M11.41 14.87L13.36 14.87L8.32 3.99L5.32 3.99L0.28 14.87L2.21 14.87L3.77 11.41L9.86 11.41ZM6.58 5.18L7.07 5.18L9.32 10.22L4.31 10.22ZM14.90 3.99L14.90 14.87L16.72 14.87L16.72 9.88L18.54 9.88C20.85 9.88 21.57 10.33 21.87 11.56C22.46 14.04 22.58 14.59 22.79 14.87L24.68 14.87C24.47 14.59 24.35 14.11 23.60 11.26C23.28 10.00 22.13 9.52 21.11 9.39C23.00 9.39 24.40 8.60 24.40 6.93C24.40 4.93 22.88 3.99 19.52 3.99ZM16.72 8.69L16.72 5.18L19.52 5.18C21.20 5.18 22.48 5.53 22.48 6.93C22.48 8.33 21.20 8.69 19.52 8.69ZM25.52 5.18L30.14 5.18L30.14 14.87L31.92 14.87L31.92 5.18L36.54 5.18L36.54 3.99L25.52 3.99ZM47.59 11.77C47.59 9.16 44.97 9.02 44.97 9.02C44.97 9.02 47.31 8.76 47.31 6.65C47.31 4.93 45.78 3.99 42.42 3.99L37.80 3.99L37.80 14.87L42.70 14.87C46.06 14.87 47.59 13.83 47.59 11.77ZM39.62 8.69L39.62 5.18L42.42 5.18C44.10 5.18 45.39 5.53 45.39 6.93C45.39 8.33 44.10 8.69 42.42 8.69ZM39.62 9.88L42.70 9.88C44.38 9.88 45.67 10.23 45.67 11.77C45.67 13.31 44.38 13.68 42.70 13.68L39.62 13.68ZM49.69 3.99L49.69 14.87L51.51 14.87L51.51 3.99ZM58.93 3.99L54.03 3.99L54.03 14.87L58.93 14.87C62.57 14.87 64.85 12.80 64.85 9.44C64.85 6.06 62.57 3.99 58.93 3.99ZM55.85 5.18L58.09 5.18C61.17 5.18 62.93 6.64 62.93 9.44C62.93 12.24 61.17 13.68 58.09 13.68L55.85 13.68Z"></path></g><!----><!----></svg>